<?xml version="1.0" encoding="UTF-8"?>
<svg id="a" xmlns="http://www.w3.org/2000/svg" xmlns:xlink="http://www.w3.org/1999/xlink" viewBox="0 0 549.21 454.13">
  <defs>
    <style>
      .cls-1 {
        fill: url(#linear-gradient);
      }

      .cls-1, .cls-2, .cls-3, .cls-4, .cls-5, .cls-6, .cls-7, .cls-8, .cls-9, .cls-10, .cls-11 {
        stroke-width: 0px;
      }

      .cls-3 {
        fill: #d13d06;
      }

      .cls-4 {
        fill: #fff;
      }

      .cls-5 {
        fill: #eb600b;
      }

      .cls-6 {
        fill: url(#linear-gradient-2);
      }

      .cls-7 {
        fill: #e14d04;
      }

      .cls-8 {
        fill: #081f2c;
      }

      .cls-9 {
        fill: #fffffe;
      }

      .cls-10 {
        fill: #c43d0a;
      }

      .cls-11 {
        fill: #fe8113;
      }
    </style>
    <linearGradient id="linear-gradient" x1="228.9" y1="15.72" x2="228.9" y2="420.47" gradientUnits="userSpaceOnUse">
      <stop offset="0" stop-color="#fe8113"/>
      <stop offset=".15" stop-color="#f97408"/>
      <stop offset="1" stop-color="#c53b08" stop-opacity=".9"/>
    </linearGradient>
    <linearGradient id="linear-gradient-2" x1="143.11" y1="177.68" x2="424.06" y2="41.31" gradientTransform="translate(0 453.89) scale(1 -1)" gradientUnits="userSpaceOnUse">
      <stop offset=".46" stop-color="#fe8113"/>
      <stop offset="1" stop-color="#c53b08" stop-opacity=".9"/>
    </linearGradient>
  </defs>
  <path class="cls-5" d="m161.75,73.44c-12.39,3.82-17.34,8.72-21.08,21.18-.84,2.8-4.84,2.8-5.68,0-3.74-12.46-8.69-17.36-21.08-21.18-2.58-.8-2.58-4.47,0-5.26,12.39-3.82,17.34-8.72,21.08-21.18.84-2.8,4.84-2.8,5.68,0,3.74,12.46,8.69,17.36,21.08,21.18,2.58.8,2.58,4.47,0,5.26Z"/>
  <path class="cls-5" d="m546.76,305.96c-13.36,4.12-18.69,9.4-22.72,22.83-.91,3.02-5.22,3.02-6.12,0-4.03-13.43-9.36-18.71-22.72-22.83-2.79-.86-2.79-4.82,0-5.67,13.36-4.12,18.69-9.4,22.72-22.83.91-3.02,5.22-3.02,6.12,0,4.03,13.43,9.36,18.71,22.72,22.83,2.79.86,2.79,4.82,0,5.67Z"/>
  <path class="cls-5" d="m65.13,171.12c-12.39,3.82-17.34,8.72-21.08,21.18-.84,2.8-4.84,2.8-5.68,0-3.74-12.46-8.69-17.36-21.08-21.18-2.58-.8-2.58-4.47,0-5.26,12.39-3.82,17.34-8.72,21.08-21.18.84-2.8,4.84-2.8,5.68,0,3.74,12.46,8.69,17.36,21.08,21.18,2.58.8,2.58,4.47,0,5.26h0Z"/>
  <path class="cls-5" d="m547.91,182.93c-7.67,2.36-10.73,5.4-13.04,13.1-.52,1.73-2.99,1.73-3.51,0-2.31-7.71-5.37-10.74-13.04-13.1-1.6-.49-1.6-2.76,0-3.26,7.67-2.36,10.73-5.4,13.04-13.1.52-1.73,2.99-1.73,3.51,0,2.31,7.71,5.37,10.74,13.04,13.1,1.6.49,1.6,2.76,0,3.26Z"/>
  <path class="cls-3" d="m71.58,354.47s-25.11,16.44-38.67-40.35c-12.33-51.67,73.21-91.32,88.81-98.55.67-.31,1.32.47.9,1.08l-5.37,8.43s-93.74,74.41-45.67,129.39h0Z"/>
  <path class="cls-7" d="m368.25,387.41l25.53,66.72h108.26l-46.64-116.43s-42.38,29.45-87.15,49.7h0Z"/>
  <path class="cls-7" d="m68,402.39l-20.43,51.74h109.53l14.04-35.66s-55.15,4.09-103.15-16.09h.01Z"/>
  <g>
    <g>
      <path class="cls-8" d="m546.5.11s21.11,89.57-66.54,161.36c0,0,19.6,68.94-71.19,88.62,0,0,25.19-28.81,22.06-61.4l-7.3,4.57-6.61-5.89s-18.96,22.13-56.64,25.21c2.92-35.97,22.29-56.07,22.29-56.07l-7.17-4.03,3.46-5.92c-27.56-1.47-46.27,19.66-46.27,19.66-1.42-5.63-2.16-11.58-2.09-17.73.35-34.51,25.64-62.23,56.49-61.92,5.45.06,10.99.72,15.95,2.4C458.01-3.75,546.99.61,546.99.61"/>
      <path class="cls-8" d="m407.4,250.9l.99-1.14c.25-.28,24.6-28.55,22.01-60.21l-6.93,4.34-6.52-5.81c-2.75,2.95-21.9,22.17-56.64,25.01l-.59.05.05-.59c2.66-32.74,19.11-52.64,22-55.9l-7.07-3.97,3.3-5.65c-26.59-.99-44.86,19.33-45.04,19.53l-.63.71-.23-.92c-1.46-5.78-2.17-11.79-2.11-17.86.17-16.81,6.19-32.56,16.94-44.35,10.64-11.66,24.66-18.06,39.52-18.06h.53c5.95.06,11.24.83,15.72,2.29,28.5-47.78,66.15-69.23,92.74-78.82C522.09-.05,543.27.02,546.57.1l.42-.1s.01.05.03.11h0c.4,1.85,4.99,23.93-.43,53.85-5.19,28.65-20.86,70.57-66.07,107.7.76,3.04,6.14,27.02-7.53,49.81-11.53,19.23-33.1,32.39-64.12,39.11l-1.48.32h.01Zm23.85-63.06l.08.81c2.77,28.82-16.7,54.98-21.25,60.65,29.97-6.75,50.84-19.64,62.05-38.32,14.33-23.88,7.42-49.11,7.35-49.36l-.09-.32.25-.21c45.14-36.97,60.78-78.73,65.96-107.26,4.99-27.52,1.47-48.34.6-52.74-4.18-.07-24.73.14-50.46,9.42-26.49,9.56-64.02,30.97-92.38,78.72l-.21.35-.38-.13c-4.47-1.51-9.79-2.31-15.8-2.37h-.52c-14.58,0-28.34,6.29-38.78,17.74-10.59,11.6-16.51,27.12-16.68,43.69-.06,5.67.57,11.29,1.86,16.72,3.54-3.63,21.37-20.48,46.03-19.15l.82.04-3.62,6.19,7.29,4.1-.45.47c-.19.2-19.07,20.18-22.1,55.18,36.64-3.21,55.53-24.77,55.72-24.99l.33-.39,6.71,5.98,7.67-4.8v-.02Z"/>
    </g>
    <path class="cls-11" d="m415.92,166.76l13.22,11.84c126.02-69.22,105.04-164.78,105.04-164.78-111.2,16.8-143.57,130.97-143.57,130.97l12.33,11.27,12.98,10.7h0Z"/>
    <path class="cls-10" d="m534.18,13.82s-1.62,17.5-36.07,58.86l-3.21,19.85c-40.12,58.42-78.75,73.92-78.77,74.43l13.06,11.91c26.81-14.73,46.96-30.64,62.08-46.58,55.96-58.98,42.96-118.2,42.96-118.2"/>
    <path class="cls-8" d="m431.36,135.79h0c3.42,2.82,3.91,7.89,1.08,11.31l-22.29,27.03c-2.83,3.43-7.89,3.91-11.31,1.09h0c-3.42-2.82-3.91-7.89-1.08-11.31l22.29-27.03c2.83-3.43,7.89-3.91,11.31-1.09Z"/>
    <circle class="cls-8" cx="476.12" cy="89.24" r="30.17"/>
    <circle class="cls-4" cx="476.12" cy="89.24" r="16.63"/>
    <path class="cls-4" d="m397.73,102.19c-2.77.99-4.8,2.45-6.64,2.25-17.58-1.93-34.29,6.57-43.39,22.39-1.22,2.12-2.4,4.27-3.99,7.11,2.79-24.26,34.84-43.5,54.02-31.75Z"/>
    <path class="cls-9" d="m397.97,151.51l-7.36-6.72S422.98,30.61,534.18,13.81l.82,6.16c-.02-.16-11.28,2.71-11.87,2.89-24.84,7.33-48.36,20.12-67.84,37.15-20.26,17.71-35.89,40.09-47.08,64.52-2.61,5.71-4.97,11.53-7.08,17.45-1.12,3.15-2.17,6.33-3.16,9.52h0Z"/>
  </g>
  <g>
    <path class="cls-8" d="m163.7,419.86c-2.28,0-4.54-.02-6.8-.07-40.18-.81-75.52-8.78-102.19-23.03-25.21-13.47-42.78-32.66-49.37-54.85-11.37-38.3-3.75-100.62,117.41-158.03,3.75-1.77,8.22-.18,9.99,3.57,1.77,3.74.18,8.22-3.57,9.99C67.6,226.61,1.71,281.27,18.74,339.82c4.24,14.58,20.31,30.43,43.04,43.71,50.85,29.7,137.73,28.42,223.92,1.71,69.14-21.42,118.04-52.04,170.18-91.42,3.31-2.5,8.01-1.84,10.5,1.47,2.5,3.3,1.84,8.01-1.46,10.5-53.4,40.33-103.55,71.71-174.78,93.77-42.97,13.31-86.53,20.29-126.44,20.29h0Z"/>
    <path class="cls-8" d="m163.7,421.36c-2.29,0-4.59-.02-6.83-.07-40.42-.82-75.99-8.84-102.87-23.21-25.72-13.75-43.51-33.55-50.1-55.75-7.36-24.79-4.28-49.36,9.14-73.02,18.08-31.87,54.78-61.07,109.07-86.8,4.49-2.12,9.87-.2,11.99,4.28,2.12,4.49.21,9.86-4.28,11.99-61.03,28.93-126.36,83.11-109.64,140.62,4.03,13.85,19.46,29.46,42.36,42.83,48.7,28.45,134.04,29.05,222.72,1.57,68.94-21.36,117.7-51.9,169.72-91.18,3.96-2.99,9.62-2.2,12.61,1.76,2.99,3.96,2.2,9.61-1.76,12.61-53.52,40.42-103.81,71.88-175.24,94.01-42.99,13.32-86.87,20.36-126.89,20.36h0Zm-37.74-236.71c-.86,0-1.73.19-2.56.58-53.72,25.45-89.97,54.24-107.74,85.57-13.01,22.92-15.99,46.7-8.87,70.68,6.36,21.43,23.63,40.59,48.63,53.95,26.46,14.15,61.57,22.05,101.51,22.86,2.22.05,4.5.07,6.77.07,39.73,0,83.29-6.99,126-20.23,71.02-22,121.05-53.31,174.32-93.54,2.64-1.99,3.17-5.76,1.17-8.4-1.99-2.64-5.76-3.17-8.4-1.17-52.26,39.47-101.28,70.16-170.64,91.65-89.46,27.72-175.72,27.01-225.12-1.85-23.55-13.76-38.05-30.43-42.29-45-17.25-59.33,47.7-114.32,109.8-143.75,1.45-.69,2.54-1.9,3.08-3.4.54-1.51.46-3.14-.23-4.59-1.02-2.16-3.18-3.43-5.43-3.43h0Z"/>
  </g>
  <g>
    <path class="cls-2" d="m167,381.08h-.08c-23.15-.3-42.72-1.39-59.13-6.94-27.56-9.33-45.63-24.22-53.7-47.49-18.64-53.78,58.37-99.11,61.78-101.07,2.87-1.66,6.54-.67,8.19,2.21,1.65,2.87.67,6.54-2.21,8.19-.88.51-71.82,42.35-56.43,86.74,11.19,32.29,45.62,45.64,101.65,46.36,3.31.04,5.96,2.76,5.92,6.08-.04,3.29-2.72,5.92-6,5.92h.01Z"/>
    <path class="cls-2" d="m167,382.58h-.08c-24.95-.32-43.62-1.61-59.62-7.02-28.85-9.76-46.72-25.6-54.63-48.42-19.11-55.13,59.11-100.94,62.45-102.86,1.74-1,3.76-1.27,5.69-.74,1.93.52,3.55,1.76,4.55,3.5s1.26,3.76.74,5.69c-.52,1.93-1.76,3.55-3.5,4.55-.71.41-70.81,41.54-55.76,84.95,10.47,30.2,42.32,44.61,100.25,45.35,2,.03,3.88.83,5.27,2.26s2.15,3.33,2.13,5.33c-.05,4.08-3.42,7.4-7.5,7.4h0Zm-48.14-156.31c-.78,0-1.55.2-2.24.6-3.25,1.87-79.42,46.47-61.11,99.28,7.69,22.19,24.46,36.98,52.76,46.56,15.62,5.29,34.04,6.54,58.67,6.86l.06,1.5v-1.5c2.45,0,4.47-1.99,4.5-4.44.03-2.48-1.96-4.53-4.44-4.56-59.37-.76-92.11-15.81-103.05-47.37-15.85-45.73,56.37-88.11,57.1-88.53,1.04-.6,1.79-1.57,2.1-2.73.31-1.16.15-2.37-.45-3.41-.6-1.04-1.57-1.79-2.73-2.1-.39-.1-.78-.16-1.18-.16h.01Z"/>
  </g>
  <path class="cls-1" d="m427.49,265.96c-40.09,17.87-54.64,17.62-54.64,17.62,29.62-39.57,33.7-67.91,33.7-67.91-25.02,20.43-61.28,16.6-61.28,16.6-5.87-37.02,11.32-62.64,11.32-62.64-7.66,4.26-31.4,24-31.4,24-33.53-70.64,23.83-114.64,23.83-114.64L318.21,1.96h-83.74L97.02,337.28s73.62,53.28,282.47-41.19c0,0-37.76,30.87-76.57,48.74,0,0,39.94,7.14-66.44,33.36-106.21,26.17-217.57-2.44-203.27-65.42,0,0,3.06-50.72,89.53-96.68,0,0-3.4-9.53-15.32-5.11-11.91,4.43-133.79,81.02-77.28,147.74,56.51,66.72,173.96,45.96,203.57,41.19,29.62-4.77,124.56-30.98,208.83-96.68h.01s-15.06-37.27-15.06-37.27Zm-198.58-.75l45.83-113.7,43.4,113.7h-89.23Z"/>
  <path class="cls-6" d="m427.49,265.96l15.06,37.28c-84.28,65.7-179.21,91.91-208.83,96.68-29.62,4.77-147.06,25.53-203.57-41.19-56.51-66.72,65.36-143.32,77.28-147.74,11.91-4.43,15.32,5.11,15.32,5.11-86.47,45.96-89.53,96.68-89.53,96.68-14.3,62.98,97.06,91.59,203.27,65.42,106.38-26.21,66.44-33.36,66.44-33.36,38.81-17.87,76.57-48.74,76.57-48.74l48-30.13h-.01Z"/>
  <g>
    <path class="cls-2" d="m253.14,374.94c-3,0-5.59-2.24-5.95-5.29-.39-3.29,1.95-6.27,5.24-6.67.29-.04,21.11-2.73,52.3-17.35,3-1.41,6.57-.11,7.98,2.89s.11,6.57-2.89,7.98c-33.18,15.55-55.05,18.29-55.96,18.4-.24.03-.48.04-.72.04Z"/>
    <path class="cls-2" d="m253.14,376.44c-3.79,0-6.99-2.84-7.44-6.61-.49-4.1,2.45-7.84,6.55-8.33.2-.03,20.94-2.73,51.84-17.22,1.81-.85,3.85-.94,5.73-.26s3.39,2.06,4.24,3.87c.85,1.81.94,3.85.26,5.73s-2.06,3.39-3.87,4.24c-33.36,15.64-55.5,18.42-56.42,18.53-.3.04-.6.05-.89.05h0Zm54.13-29.88c-.65,0-1.3.14-1.91.43-31.35,14.7-52.54,17.45-52.75,17.48-2.47.3-4.23,2.54-3.94,5,.29,2.44,2.5,4.24,5,3.94.9-.11,22.57-2.83,55.5-18.27,1.09-.51,1.91-1.41,2.32-2.54s.35-2.35-.16-3.44-1.41-1.91-2.54-2.32c-.5-.18-1.02-.27-1.53-.27h.01Z"/>
  </g>
</svg>